<svg xmlns="http://www.w3.org/2000/svg" fill="none" viewBox="0 0 222 22" height="22" width="222">
<path fill="#2D292A" d="M26.8547 0.0820312H22.4897C21.7622 0.0820312 21.0683 0.627225 20.9409 1.29848L18.9931 11.4303C18.9394 11.6981 18.5639 11.7612 18.3963 11.528L11.8053 0.513775C11.6075 0.23645 11.2655 0.0820312 10.88 0.0820312H5.31486C4.58736 0.0820312 3.89339 0.627225 3.766 1.29848L0.0212547 20.7584C-0.109493 21.4297 0.37662 21.9749 1.10411 21.9749H5.46907C6.19656 21.9749 6.89053 21.4297 7.01793 20.7584L9.12665 9.78838C9.17694 9.52051 9.55577 9.45748 9.7234 9.69069L16.8978 21.5463C17.0955 21.8205 17.4342 21.9812 17.823 21.9812H22.6439C23.3714 21.9812 24.0654 21.436 24.1928 20.7647L27.9342 1.30478C28.0616 0.630377 27.5755 0.0851827 26.848 0.0851827L26.8547 0.0820312Z"></path>
<path fill="#2D292A" d="M51.1936 0H37.75C34.3338 0 31.0719 2.55895 30.4651 5.71666L28.4368 16.2613C27.83 19.4158 30.1063 21.9779 33.5225 21.9779H46.9661C50.3823 21.9779 53.6443 19.419 54.2511 16.2613L56.276 5.71666C56.8861 2.5621 54.6098 0 51.1936 0ZM49.0882 6.39106L47.3382 15.5113C47.2611 15.9146 46.842 16.2424 46.4062 16.2424H36.2816C35.8458 16.2424 35.5541 15.9178 35.6313 15.5113L37.3846 6.39106C37.4617 5.98768 37.8808 5.65994 38.3166 5.65994H48.4378C48.8736 5.65994 49.1653 5.98453 49.0882 6.39106Z"></path>
<path fill="#2D292A" d="M78.6813 0.0537109H62.0663C61.3388 0.0537109 60.6448 0.598905 60.5174 1.27016L56.7693 20.7616C56.6386 21.4329 57.1247 21.9781 57.8522 21.9781H62.2473C62.8776 21.9781 63.481 21.5684 63.7157 21.0232L65.7272 10.737L66.6793 5.77983C66.7028 5.64747 66.8436 5.53717 66.9877 5.53717H75.5869C76.2373 5.53717 76.6664 6.02249 76.5524 6.62125L75.9221 9.89872C75.8048 10.4943 75.1879 10.9797 74.5409 10.9797H69.2104C68.7143 10.9797 68.2885 11.3106 68.198 11.7707L67.4873 15.3223C67.3666 15.9179 67.856 16.4694 68.5031 16.4694H70.2028C70.4643 16.4694 70.6855 16.5892 70.7928 16.7909L73.3005 21.3888C73.5922 21.934 74.1219 21.997 75.7176 21.9749C76.653 21.9875 78.0711 21.9182 80.3609 21.9182C81.0984 21.9182 81.5476 21.1934 81.1856 20.5883L78.4466 16.107C78.3762 15.9873 78.4533 15.8265 78.6042 15.7572C80.7162 14.7929 82.3925 12.9178 82.8082 10.7528L83.7637 5.77037C84.3738 2.61266 82.0975 0.0537109 78.6813 0.0537109Z"></path>
<path fill="#2D292A" d="M94.1289 6.38791C94.206 5.98453 94.6251 5.65679 95.0609 5.65679H102.483C102.919 5.65679 103.211 5.98138 103.134 6.38791L101.38 15.5081C101.303 15.9115 100.884 16.2392 100.452 16.2392H96.1237C95.6275 16.2392 95.2051 16.5701 95.1112 17.0271L94.3502 20.8308C94.2295 21.4264 94.7156 21.9779 95.3627 21.9779H101.008C104.424 21.9779 107.686 19.419 108.293 16.2613L110.322 5.71666C110.932 2.55895 108.655 0 105.236 0H89.6165C88.889 0 88.195 0.545194 88.0676 1.21644L84.3095 20.7615C84.1787 21.4328 84.6615 21.9779 85.389 21.9779H90.3138C90.7932 21.9779 91.2055 21.6565 91.2894 21.2122L94.1323 6.38791H94.1289Z"></path>
<path fill="#7602A4" d="M135.831 0.0785684H120.279C116.862 0.0785684 113.6 2.63751 112.994 5.79523L112.565 8.02958C111.958 11.1873 114.234 13.7462 117.65 13.7462H128.167C128.603 13.7462 128.895 14.0708 128.817 14.4774L128.62 15.5142C128.543 15.9176 128.124 16.2453 127.688 16.2453H113.064C112.337 16.2453 111.643 16.7905 111.515 17.4618L110.882 20.7644C110.751 21.4357 111.237 21.9809 111.964 21.9809H127.228H127.909C131.325 21.9809 134.587 19.4219 135.194 16.2642L135.586 14.2158C136.193 11.0612 133.913 8.49914 130.5 8.49914H119.984C119.548 8.49914 119.256 8.17455 119.333 7.76801L119.598 6.3877C119.675 5.98431 120.094 5.65657 120.53 5.65657H134.758C135.486 5.65657 136.18 5.11137 136.307 4.44012L136.914 1.29186C137.045 0.61746 136.558 0.0722656 135.831 0.0722656V0.0785684Z"></path>
<path fill="#7602A4" d="M161.887 4.43697L162.493 1.28871C162.621 0.61746 162.138 0.0722656 161.411 0.0722656H140.994C140.266 0.0722656 139.572 0.61746 139.445 1.28871L138.842 4.43697C138.711 5.10822 139.197 5.65342 139.924 5.65342H146.355C146.499 5.65342 146.599 5.76056 146.572 5.89923L143.713 20.7644C143.582 21.4357 144.068 21.9809 144.796 21.9809H149.191C149.918 21.9809 150.612 21.4357 150.74 20.7644L153.599 5.89923C153.623 5.76372 153.764 5.65342 153.908 5.65342H160.338C161.065 5.65342 161.759 5.10822 161.887 4.43697Z"></path>
<path fill="#7602A4" d="M170.533 0.0722656H166.134C165.407 0.0722656 164.713 0.61746 164.585 1.28871L160.841 20.7613C160.71 21.4325 161.196 21.9777 161.923 21.9777H166.322C167.049 21.9777 167.743 21.4325 167.871 20.7613L171.616 1.28871C171.746 0.61746 171.264 0.0722656 170.536 0.0722656H170.533Z"></path>
<path fill="#7602A4" d="M195.375 1.2477C195.506 0.576444 195.019 0.03125 194.292 0.03125H181.408C178.002 0.03125 174.747 2.57759 174.133 5.72585L172.072 16.2516C171.458 19.4093 173.734 21.9745 177.154 21.9745H190.068C190.795 21.9745 191.489 21.4293 191.617 20.7581L192.25 17.4523C192.381 16.781 191.895 16.2358 191.167 16.2358H179.953C179.517 16.2358 179.226 15.9112 179.303 15.5047L181.056 6.42231C181.133 6.02208 181.552 5.69119 181.985 5.69119H193.199C193.927 5.69119 194.62 5.14599 194.748 4.47474L195.371 1.24454L195.375 1.2477Z"></path>
<path fill="#7602A4" d="M205.278 1.29213C205.409 0.620878 204.923 0.0756836 204.195 0.0756836H199.797C199.069 0.0756836 198.375 0.620878 198.248 1.29213L194.507 20.7616C194.376 21.4328 194.862 21.978 195.589 21.978H199.988C200.585 21.978 201.151 21.6093 201.409 21.1082L204.812 3.71556L205.278 1.29213Z"></path>
<path fill="#7602A4" d="M221.809 0.850973C222.155 0.529529 222.007 0.0473633 221.558 0.0473633H214.706C214.32 0.0473633 213.918 0.204934 213.616 0.482258L207.568 5.95941C207.424 6.09177 207.323 6.26195 207.286 6.45103L205.479 15.4861C205.433 15.7225 205.486 15.9683 205.63 16.1668L209.516 21.5684C209.714 21.8425 210.049 22.0001 210.438 22.0001H217.29C217.74 22.0001 218.071 21.5179 217.847 21.1996L210.659 11.2065C210.592 11.1151 210.619 10.9828 210.719 10.8914L221.806 0.847822L221.809 0.850973Z"></path>
</svg>
