<?xml version="1.0" encoding="utf-8"?>
<!-- Generator: Adobe Illustrator 26.0.2, SVG Export Plug-In . SVG Version: 6.00 Build 0)  -->
<svg version="1.1" id="Layer_1" xmlns="http://www.w3.org/2000/svg" xmlns:xlink="http://www.w3.org/1999/xlink" x="0px" y="0px"
	 viewBox="0 0 244 66" style="enable-background:new 0 0 244 66;" xml:space="preserve">
<style type="text/css">
	.st0{clip-path:url(#SVGID_00000029743903931217765740000014098255623980066968_);fill:#231F20;}
	.st1{clip-path:url(#SVGID_00000031893240081703059630000010866132867146286501_);fill:#231F20;}
	.st2{fill:#231F20;}
</style>
<g>
	<g>
		<defs>
			<path id="SVGID_1_" d="M15.85,33.26c0,12.87,10.53,23.35,23.5,23.43c0.07,0.01,0.13,0.01,0.19,0.01c4,0,7.99-1.21,12.2-2.48
				c4.08-1.23,8.31-2.51,12.49-2.57c7.37-0.14,12.04,1.4,16.45,4.32c1.32-0.56,2.67-1.02,4.05-1.25c0.81-0.14,1.57-0.25,2.31-0.33
				c-6.17-4.97-12.38-7.97-22.88-7.8c-1.89,0.03-3.74,0.25-5.55,0.59c0,0,0,0,0,0l-0.91,0.18h-0.02l0,0.01
				c-2.53,0.53-4.99,1.28-7.4,2.01c-3.79,1.15-7.38,2.23-10.6,2.26c-0.06-0.01-0.12-0.01-0.18-0.01c-10.25,0-18.59-8.24-18.59-18.37
				c0-10.25,8.33-18.59,18.59-18.59c10.25,0,18.58,8.34,18.58,18.59c0,4.12-1.63,8.71-4.21,11.23c2.72-0.88,4.96-1.27,7.25-1.64
				c1.33-2.98,2.03-6.22,2.03-9.58c0-13.04-10.61-23.65-23.65-23.65C26.46,9.61,15.85,20.22,15.85,33.26 M39.63,3
				C22.86,3,9.22,16.65,9.22,33.42c0,16.79,13.34,30.15,30.37,30.42c4.48,0.07,8.8-1.27,12.99-2.58c3.87-1.21,7.53-2.34,11.18-2.39
				c4.19-0.09,7.02,0.34,9.5,1.39c1.64-1.09,3.28-2.17,4.97-3.09c-3.83-2.38-7.87-3.49-14.55-3.36c-4.37,0.06-8.55,1.36-12.6,2.62
				c-3.98,1.23-7.74,2.43-11.41,2.35c-14.24-0.22-25.39-11.36-25.39-25.36c0-13.99,11.37-25.36,25.35-25.36
				c13.98,0,25.36,11.37,25.36,25.36c0,3.18-0.6,6.25-1.73,9.14c0.57-0.05,1.14-0.08,1.7-0.09c1.35-0.02,2.56,0.01,3.69,0.08
				c0.93-2.93,1.41-5.99,1.41-9.13C70.05,16.65,56.4,3,39.63,3z"/>
		</defs>
		<use xlink:href="#SVGID_1_"  style="overflow:visible;fill:#231F20;"/>
		<clipPath id="SVGID_00000126295887254279836650000002109407101505875627_">
			<use xlink:href="#SVGID_1_"  style="overflow:visible;"/>
		</clipPath>
		
			<rect x="9.22" y="3" style="clip-path:url(#SVGID_00000126295887254279836650000002109407101505875627_);fill:#231F20;" width="77.82" height="60.92"/>
	</g>
	<g>
		<defs>
			<path id="SVGID_00000174580890992840363770000013291296629186233223_" d="M232.93,24.37h0.5c0.17,0,0.35,0.13,0.35,0.35
				c0,0.2-0.18,0.33-0.35,0.33h-0.5V24.37z M232.65,24.13v1.92h0.29v-0.76h0.32l0.5,0.76h0.35l-0.51-0.77
				c0.11,0,0.48-0.14,0.48-0.57c0-0.35-0.32-0.58-0.64-0.58H232.65z M231.88,25.08c0-0.79,0.63-1.41,1.41-1.41
				c0.78,0,1.41,0.62,1.41,1.41c0,0.78-0.63,1.42-1.41,1.42C232.51,26.5,231.88,25.86,231.88,25.08 M231.62,25.08
				c0,0.93,0.75,1.68,1.67,1.68c0.93,0,1.68-0.75,1.68-1.68c0-0.93-0.74-1.67-1.68-1.67C232.37,23.41,231.62,24.15,231.62,25.08
				 M100.75,23.32v8.05c0,1.77-0.58,2.71-2.26,2.71c-1.85,0-2.43-0.86-2.43-2.8v-7.97h-3.92v8.23c0,3.87,2.14,5.69,6.26,5.69
				c3.86,0,5.93-2.07,5.93-6.1v-7.83H100.75z M120.78,23.32v13.67h8.81v-3.1h-4.86V23.32H120.78z M131.54,36.99h3.95V23.32h-3.95
				V36.99z M136.96,23.32v3.18h3.68v10.49h3.93V26.5h3.67v-3.18H136.96z M157.4,23.32l-2.28,4.91h-0.02l-2.3-4.91h-4.33l4.49,8.52
				v5.15h3.93v-5.15l4.31-8.52H157.4z M180.85,23.32v13.67h3.92v-5.01h3.99v-2.95h-3.99V26.5h4.49v-3.18H180.85z M194.19,23.32
				v13.67h8.8v-3.1h-4.86V23.32H194.19z M204.95,36.99h3.94V23.32h-3.94V36.99z M211.64,23.32v13.67h3.93v-5.01h3.98v-2.95h-3.98
				V26.5h4.47v-3.18H211.64z M221.92,23.32v13.67h8.72v-3.18h-4.86v-2.3h4.17v-2.97h-4.17V26.5h4.72v-3.18H221.92z M111.48,29.85
				c0.38-1.17,0.62-2.3,0.64-2.39h0.04c0.02,0.09,0.22,1.2,0.63,2.39l0.75,2.15h-2.78L111.48,29.85z M110.35,23.32l-5.22,13.67h3.96
				l0.64-1.93h4.86l0.66,1.93h4.28l-5.42-13.67H110.35z M80.17,30.06c0-2.12,0.9-3.87,3.26-3.87c2.32,0,3.08,1.85,3.08,3.99
				c0,2.12-0.8,3.94-3.16,3.94C81.05,34.12,80.17,32.21,80.17,30.06 M76.02,30.18c0,3,1.73,5.86,5.06,6.75
				c2.28,3.12,4.11,3.88,6.45,3.88c1.55,0,2.6-0.6,3.02-0.9l-1.21-2.47c-0.3,0.23-0.83,0.53-1.62,0.53c-0.9,0-1.43-0.21-2.03-1.03
				c3.37-0.88,4.97-3.84,4.97-6.9c0-3.62-2.41-6.98-7.29-6.98C78.49,23.07,76.02,26.5,76.02,30.18 M168.67,30.06
				c0-2.12,0.9-3.87,3.27-3.87c2.32,0,3.07,1.85,3.07,3.99c0,2.12-0.8,3.94-3.16,3.94C169.55,34.12,168.67,32.21,168.67,30.06
				 M164.53,30.18c0,3.64,2.54,7.07,7.41,7.07c4.89,0,7.2-3.51,7.2-7.19c0-3.62-2.4-6.98-7.29-6.98
				C166.99,23.07,164.53,26.5,164.53,30.18"/>
		</defs>
		<use xlink:href="#SVGID_00000174580890992840363770000013291296629186233223_"  style="overflow:visible;fill:#231F20;"/>
		<clipPath id="SVGID_00000116209411718323989940000010431371935141776559_">
			<use xlink:href="#SVGID_00000174580890992840363770000013291296629186233223_"  style="overflow:visible;"/>
		</clipPath>
		
			<rect x="76.02" y="23.07" style="clip-path:url(#SVGID_00000116209411718323989940000010431371935141776559_);fill:#231F20;" width="158.95" height="17.74"/>
	</g>
</g>
<g>
	<path class="st2" d="M105.11,48.03v-5.99h2.8c1.3,0,2.01,0.88,2.01,1.93c0,1.04-0.72,1.92-2.01,1.92h-1.53v2.14H105.11z
		 M108.63,43.96c0-0.5-0.39-0.81-0.89-0.81h-1.35v1.61h1.35C108.24,44.76,108.63,44.46,108.63,43.96z"/>
	<path class="st2" d="M110.71,48.03v-4.34h1.14v0.58c0.32-0.38,0.85-0.69,1.38-0.69v1.12c-0.08-0.02-0.18-0.03-0.32-0.03
		c-0.38,0-0.88,0.22-1.07,0.49v2.87H110.71z"/>
	<path class="st2" d="M113.67,45.85c0-1.23,0.86-2.27,2.29-2.27c1.44,0,2.3,1.04,2.3,2.27s-0.86,2.28-2.3,2.28
		C114.54,48.14,113.67,47.08,113.67,45.85z M117.08,45.85c0-0.67-0.4-1.26-1.12-1.26c-0.71,0-1.11,0.58-1.11,1.26
		c0,0.68,0.4,1.27,1.11,1.27C116.68,47.12,117.08,46.53,117.08,45.85z"/>
	<path class="st2" d="M120.25,48.03l-1.74-4.34h1.22l1.13,3.02l1.14-3.02h1.22l-1.74,4.34H120.25z"/>
	<path class="st2" d="M123.47,45.85c0-1.26,0.93-2.27,2.25-2.27c1.3,0,2.18,0.97,2.18,2.38v0.27h-3.23
		c0.08,0.53,0.51,0.97,1.25,0.97c0.37,0,0.87-0.15,1.15-0.42l0.51,0.76c-0.43,0.4-1.12,0.6-1.79,0.6
		C124.46,48.14,123.47,47.25,123.47,45.85z M125.71,44.51c-0.71,0-1.01,0.49-1.06,0.93h2.14C126.75,45.03,126.47,44.51,125.71,44.51
		z"/>
	<path class="st2" d="M131.65,48.03V45.4c0-0.6-0.31-0.81-0.8-0.81c-0.45,0-0.79,0.25-0.99,0.5v2.93h-1.14v-4.34h1.14v0.56
		c0.28-0.32,0.82-0.67,1.52-0.67c0.96,0,1.42,0.54,1.42,1.38v3.07H131.65z"/>
	<path class="st2" d="M135.86,47.18l0.7-1c0.42,0.44,1.08,0.82,1.91,0.82c0.71,0,1.04-0.31,1.04-0.66c0-1.04-3.45-0.32-3.45-2.57
		c0-1,0.86-1.82,2.28-1.82c0.95,0,1.74,0.29,2.34,0.84l-0.71,0.95c-0.49-0.45-1.13-0.66-1.74-0.66c-0.54,0-0.85,0.23-0.85,0.59
		c0,0.94,3.44,0.31,3.44,2.54c0,1.1-0.79,1.92-2.4,1.92C137.25,48.14,136.42,47.75,135.86,47.18z"/>
	<path class="st2" d="M141.37,45.85c0-1.33,0.97-2.27,2.3-2.27c0.89,0,1.43,0.39,1.72,0.78l-0.75,0.7
		c-0.21-0.31-0.52-0.47-0.92-0.47c-0.69,0-1.18,0.5-1.18,1.26c0,0.76,0.49,1.27,1.18,1.27c0.4,0,0.71-0.18,0.92-0.48l0.75,0.7
		c-0.29,0.4-0.83,0.79-1.72,0.79C142.34,48.14,141.37,47.19,141.37,45.85z"/>
	<path class="st2" d="M146.03,42.54c0-0.38,0.31-0.67,0.67-0.67c0.38,0,0.68,0.3,0.68,0.67c0,0.38-0.31,0.68-0.68,0.68
		C146.33,43.22,146.03,42.91,146.03,42.54z M146.13,48.03v-4.34h1.14v4.34H146.13z"/>
	<path class="st2" d="M148.13,45.85c0-1.26,0.94-2.27,2.25-2.27c1.3,0,2.18,0.97,2.18,2.38v0.27h-3.23
		c0.08,0.53,0.51,0.97,1.25,0.97c0.37,0,0.87-0.15,1.15-0.42l0.51,0.76c-0.43,0.4-1.12,0.6-1.79,0.6
		C149.13,48.14,148.13,47.25,148.13,45.85z M150.38,44.51c-0.71,0-1.01,0.49-1.06,0.93h2.14C151.42,45.03,151.13,44.51,150.38,44.51
		z"/>
	<path class="st2" d="M156.32,48.03V45.4c0-0.6-0.31-0.81-0.8-0.81c-0.45,0-0.79,0.25-0.99,0.5v2.93h-1.14v-4.34h1.14v0.56
		c0.28-0.32,0.82-0.67,1.52-0.67c0.96,0,1.42,0.54,1.42,1.38v3.07H156.32z"/>
	<path class="st2" d="M158.32,45.85c0-1.33,0.97-2.27,2.3-2.27c0.89,0,1.43,0.39,1.72,0.78l-0.75,0.7
		c-0.21-0.31-0.52-0.47-0.92-0.47c-0.69,0-1.18,0.5-1.18,1.26c0,0.76,0.49,1.27,1.18,1.27c0.4,0,0.71-0.18,0.92-0.48l0.75,0.7
		c-0.29,0.4-0.83,0.79-1.72,0.79C159.29,48.14,158.32,47.19,158.32,45.85z"/>
	<path class="st2" d="M162.81,45.85c0-1.26,0.94-2.27,2.25-2.27c1.3,0,2.18,0.97,2.18,2.38v0.27h-3.23
		c0.08,0.53,0.51,0.97,1.25,0.97c0.37,0,0.87-0.15,1.15-0.42l0.51,0.76c-0.43,0.4-1.12,0.6-1.79,0.6
		C163.81,48.14,162.81,47.25,162.81,45.85z M165.06,44.51c-0.71,0-1.01,0.49-1.06,0.93h2.14C166.1,45.03,165.81,44.51,165.06,44.51z
		"/>
	<path class="st2" d="M170.64,48.03v-3.34h-0.72v-1h0.72v-0.18c0-0.98,0.58-1.56,1.46-1.56c0.42,0,0.87,0.12,1.13,0.41l-0.43,0.69
		c-0.12-0.11-0.27-0.17-0.48-0.17c-0.32,0-0.54,0.21-0.54,0.63v0.18h0.88v1h-0.88v3.34H170.64z"/>
	<path class="st2" d="M173.05,45.85c0-1.23,0.86-2.27,2.29-2.27c1.44,0,2.3,1.04,2.3,2.27s-0.86,2.28-2.3,2.28
		C173.91,48.14,173.05,47.08,173.05,45.85z M176.45,45.85c0-0.67-0.4-1.26-1.11-1.26c-0.71,0-1.11,0.58-1.11,1.26
		c0,0.68,0.4,1.27,1.11,1.27C176.06,47.12,176.45,46.53,176.45,45.85z"/>
	<path class="st2" d="M178.5,48.03v-4.34h1.14v0.58c0.31-0.38,0.85-0.69,1.38-0.69v1.12c-0.08-0.02-0.18-0.03-0.31-0.03
		c-0.38,0-0.88,0.22-1.07,0.49v2.87H178.5z"/>
	<path class="st2" d="M187.47,48.03l-1.18-2.13h-0.94v2.13h-1.28v-5.99h2.8c1.25,0,2.02,0.82,2.02,1.93c0,1.05-0.67,1.63-1.32,1.78
		l1.36,2.28H187.47z M187.59,43.96c0-0.49-0.39-0.8-0.89-0.8h-1.35v1.62h1.35C187.21,44.77,187.59,44.47,187.59,43.96z"/>
	<path class="st2" d="M189.29,45.85c0-1.26,0.93-2.27,2.25-2.27c1.3,0,2.18,0.97,2.18,2.38v0.27h-3.23
		c0.08,0.53,0.51,0.97,1.25,0.97c0.37,0,0.87-0.15,1.15-0.42l0.51,0.76c-0.43,0.4-1.12,0.6-1.79,0.6
		C190.29,48.14,189.29,47.25,189.29,45.85z M191.54,44.51c-0.71,0-1.01,0.49-1.06,0.93h2.14C192.58,45.03,192.29,44.51,191.54,44.51
		z"/>
	<path class="st2" d="M197.15,48.03v-0.46c-0.3,0.36-0.81,0.57-1.37,0.57c-0.69,0-1.5-0.47-1.5-1.44c0-1.02,0.81-1.4,1.5-1.4
		c0.58,0,1.09,0.19,1.37,0.53v-0.55c0-0.44-0.38-0.73-0.95-0.73c-0.46,0-0.89,0.18-1.25,0.51l-0.45-0.8
		c0.53-0.48,1.21-0.68,1.9-0.68c1,0,1.9,0.4,1.9,1.64v2.8H197.15z M197.15,46.98v-0.54c-0.19-0.25-0.55-0.39-0.92-0.39
		c-0.45,0-0.82,0.24-0.82,0.66c0,0.41,0.37,0.65,0.82,0.65C196.6,47.36,196.96,47.24,197.15,46.98z"/>
	<path class="st2" d="M199.43,48.03v-5.99h1.14v5.99H199.43z"/>
	<path class="st2" d="M207.44,48.03l-1.18-2.13h-0.94v2.13h-1.28v-5.99h2.8c1.25,0,2.02,0.82,2.02,1.93c0,1.05-0.67,1.63-1.32,1.78
		l1.36,2.28H207.44z M207.56,43.96c0-0.49-0.39-0.8-0.89-0.8h-1.35v1.62h1.35C207.18,44.77,207.56,44.47,207.56,43.96z"/>
	<path class="st2" d="M209.26,45.85c0-1.26,0.94-2.27,2.25-2.27c1.3,0,2.18,0.97,2.18,2.38v0.27h-3.23
		c0.08,0.53,0.51,0.97,1.25,0.97c0.37,0,0.87-0.15,1.15-0.42l0.51,0.76c-0.43,0.4-1.12,0.6-1.79,0.6
		C210.26,48.14,209.26,47.25,209.26,45.85z M211.51,44.51c-0.71,0-1.01,0.49-1.06,0.93h2.14C212.55,45.03,212.26,44.51,211.51,44.51
		z"/>
	<path class="st2" d="M214.14,47.46l0.49-0.83c0.32,0.31,0.96,0.6,1.5,0.6c0.49,0,0.73-0.19,0.73-0.46c0-0.71-2.57-0.13-2.57-1.83
		c0-0.73,0.63-1.37,1.78-1.37c0.73,0,1.31,0.25,1.74,0.59l-0.46,0.81c-0.26-0.27-0.76-0.5-1.29-0.5c-0.41,0-0.68,0.18-0.68,0.42
		c0,0.64,2.58,0.1,2.58,1.85c0,0.8-0.68,1.38-1.89,1.38C215.32,48.14,214.6,47.88,214.14,47.46z"/>
	<path class="st2" d="M221.74,48.03v-0.55c-0.3,0.32-0.82,0.66-1.53,0.66c-0.95,0-1.4-0.52-1.4-1.37v-3.08h1.14v2.63
		c0,0.6,0.31,0.8,0.8,0.8c0.44,0,0.79-0.24,0.99-0.49v-2.94h1.14v4.34H221.74z"/>
	<path class="st2" d="M224.02,48.03v-5.99h1.14v5.99H224.02z"/>
	<path class="st2" d="M226.53,46.94v-2.26h-0.72v-1h0.72V42.5h1.14v1.19h0.88v1h-0.88v1.95c0,0.28,0.14,0.49,0.4,0.49
		c0.17,0,0.33-0.06,0.4-0.13l0.24,0.87c-0.17,0.15-0.48,0.28-0.95,0.28C226.95,48.14,226.53,47.72,226.53,46.94z"/>
	<path class="st2" d="M228.96,47.46l0.49-0.83c0.32,0.31,0.96,0.6,1.5,0.6c0.49,0,0.73-0.19,0.73-0.46c0-0.71-2.57-0.13-2.57-1.83
		c0-0.73,0.63-1.37,1.78-1.37c0.73,0,1.31,0.25,1.74,0.59l-0.46,0.81c-0.26-0.27-0.76-0.5-1.29-0.5c-0.41,0-0.68,0.18-0.68,0.42
		c0,0.64,2.58,0.1,2.58,1.85c0,0.8-0.68,1.38-1.89,1.38C230.15,48.14,229.42,47.88,228.96,47.46z"/>
	<path class="st2" d="M233.49,47.4c0-0.4,0.33-0.73,0.73-0.73c0.4,0,0.73,0.33,0.73,0.73c0,0.4-0.33,0.73-0.73,0.73
		C233.82,48.13,233.49,47.79,233.49,47.4z"/>
</g>
</svg>
