<svg xmlns="http://www.w3.org/2000/svg" width="258.15" height="66.655" viewBox="0 0 258.15 66.655">
  <g id="Layer_2" data-name="Layer 2">
    <g id="DESIGN">
      <g id="Layer_321" data-name="Layer 321">
        <g>
          <path d="M252.321,33.328c4.177,3.711,5.829,7.621,5.829,14.071,0,6-3.743,12.044-8.212,15.549a16.723,16.723,0,0,1-10.2,3.707A18.407,18.407,0,0,1,229,63.71c-1.994-1.372-3.544-3.253-5.441-4.621a6.762,6.762,0,0,0-4.131-1.271H38.725a6.773,6.773,0,0,0-4.13,1.271c-1.944,1.368-3.451,3.249-5.488,4.621a18.22,18.22,0,0,1-10.741,2.945C8.211,66.655,0,58.02,0,47.4A19.713,19.713,0,0,1,5.88,33.328,19.74,19.74,0,0,1,0,19.206C0,8.588,8.211,0,18.366,0A18.217,18.217,0,0,1,29.107,2.95C31.144,4.318,32.651,6.2,34.6,7.57a6.767,6.767,0,0,0,4.13,1.271h180.7a6.756,6.756,0,0,0,4.131-1.271C225.452,6.2,227,4.318,229,2.95A18.4,18.4,0,0,1,239.737,0a15.389,15.389,0,0,1,6.75,1.574c6.222,3,11.663,10.364,11.663,17.632,0,6.5-1.652,10.414-5.829,14.122" style="fill: #fff;fill-rule: evenodd"/>
          <path d="M18.367,1.779c12.972,0,12.343,8.838,20.36,8.838h180.7c8.017,0,7.383-8.838,20.309-8.838,9.23,0,16.714,9.755,16.714,17.426,0,7.726-2.72,10.924-6.851,14.122,4.131,3.152,6.851,6.405,6.851,14.072,0,7.726-7.484,17.48-16.714,17.48-12.926,0-12.292-8.841-20.309-8.841H38.727c-8.017,0-7.388,8.841-20.36,8.841C9.185,64.879,1.7,57.056,1.7,47.4A17.684,17.684,0,0,1,8.551,33.327,17.844,17.844,0,0,1,1.7,19.2c0-9.6,7.485-17.426,16.667-17.426" style="fill: #553a94;fill-rule: evenodd"/>
          <path d="M4.519,17.782c-.583,6.249,2.138,10.516,6.8,14.123l1.9-1.419c-4.616-3.509-8.114-6.1-8.7-12.7m0,28.2C3.7,54.565,10.107,62.034,18.365,62.034c11.81,0,10.4-8.891,20.36-8.891h180.7c9.913,0,8.553,8.891,20.313,8.891,7.92,0,14.429-8.487,13.9-16.411-.684,6.657-7.291,13.516-13.9,13.516-11.76,0-10.4-8.841-20.313-8.841H38.725c-9.914,0-8.55,8.841-20.36,8.841A14.146,14.146,0,0,1,4.519,45.98m242.31-14.075c4.858-3.758,7.531-6.96,6.8-13.715-.44,6.755-4.034,8.74-8.7,12.3Z" style="fill: #fff;fill-rule: evenodd"/>
          <path d="M55.045,24.151a97.036,97.036,0,0,0-4.9,20.175l-6.7,1.155L42.12,35.888l-1.465,9.187-6.124.306a105.268,105.268,0,0,0-4.967-20.344L36.2,23.812l2.077,10.069L39.5,23.133l5.509-.377,1.6,11.8L48.614,23Z" style="fill: #fff"/>
          <path d="M75.067,23.643,81.9,22.621c.137.613.328,1.5.579,2.653a66.426,66.426,0,0,0,2.111,6.973A13.611,13.611,0,0,0,85.852,35V23.573l6.87-.952a98.135,98.135,0,0,0-.579,20.411l-6.225,1.361c-.022-.048-.269-.405-.749-1.088l-3.162-4.358a6.338,6.338,0,0,1-1.022-1.39q0,3.569.273,6.836L75.1,45.685Z" style="fill: #fff"/>
          <path d="M94.093,24.082a33.327,33.327,0,0,1,7.755-.509,11.952,11.952,0,0,1,5.955,1.834,8.979,8.979,0,0,1,3.944,5.139,8.079,8.079,0,0,1,.17,2.214,10.42,10.42,0,0,1-1.358,4.487,14.1,14.1,0,0,1-4.051,4.184,16.224,16.224,0,0,1-3.4,1.837,23.767,23.767,0,0,1-8.744,1.771H94.3L94.163,27.62q-.072-3.126-.07-3.538m6.327,10.309c-.022,1.542.011,2.985.1,4.32a8.362,8.362,0,0,0,3.944-2.719,5.039,5.039,0,0,0,1.092-3.675,3.476,3.476,0,0,0-1.7-2.416,5.867,5.867,0,0,0-3.129-.65q-.27,2.994-.306,5.14" style="fill: #fff"/>
          <path d="M122.462,29.023q-1.871.238-3.505.377c-.115.678-.181,1.177-.2,1.494l-.067,1.461,2.856-.406,2.719-.406.24,2.007.273,2.074c-1.771.247-2.937.417-3.505.509-.952.159-1.815.295-2.583.41l-.07,2.752,3.741-.476,3.742-.505.376,2.785.373,2.69q-2.856.166-6.5.646-3.64.574-8,1.394-.033-1.77-.066-5.239l-.1-5.309q-.066-6.968-.066-10.541l6.6-.683,6.667-.749.406,2.719.442,2.76c-1.313.067-2.575.148-3.774.236" style="fill: #fff"/>
          <path d="M138.677,22.757q5.58,0,6.428,3.882.476,4.655-4.727,7.615.786,1.091,5.985,6.737-2.136,1.7-5.475,4.254l-6.4-8.3c-.019,2.649.059,5.069.243,7.242l-6.091,1.365q.576-15.855-.1-21.366a45.343,45.343,0,0,1,10.138-1.428M134.56,30.1l-.07,2.111a12.312,12.312,0,0,0,2.487-1.325q1.969-1.327,1.734-2.35-.133-.747-1.362-.819a11.586,11.586,0,0,0-2.616.343,12.78,12.78,0,0,0-.173,2.04" style="fill: #fff"/>
          <path d="M154.618,34.833q.132-9.082-.343-10.818a36.906,36.906,0,0,1,9.423-1.052,8.816,8.816,0,0,1,5.343,1.731,6.025,6.025,0,0,1,1.94,4.763,7.755,7.755,0,0,1-1.295,4.527,9.048,9.048,0,0,1-3.195,2.823,15.283,15.283,0,0,1-5.888,1.87,44.588,44.588,0,0,0,.306,6.092l-6.531.612q.171-2.932.24-10.548m5.852-1.328a5.58,5.58,0,0,0,3.6-1.222,3.6,3.6,0,0,0,1.192-2.18A1.893,1.893,0,0,0,164,27.79,7.141,7.141,0,0,0,160.3,28Z" style="fill: #fff"/>
          <path d="M169.527,44.118a134.585,134.585,0,0,0,5.309-20.167l8.844-1.159a142.95,142.95,0,0,0,5.612,20.883l-6.7,1.4-.952-3.712-4.387.413-.749,3.738Zm11.261-6.7L179.124,29.6l-1.365,7.859Z" style="fill: #fff"/>
          <path d="M212.5,24.151a96.849,96.849,0,0,0-4.9,20.175l-6.7,1.155-1.324-9.593-1.465,9.187-6.125.306a105.465,105.465,0,0,0-4.962-20.344l6.634-1.225,2.073,10.069,1.225-10.748,5.509-.377,1.6,11.8L206.075,23Z" style="fill: #fff"/>
          <path d="M229.286,26.976c.132.683.269,1.443.405,2.276q-.951.344-2.926.886l-2.955.852c-.184-.885-.638-1.324-1.365-1.324a4.016,4.016,0,0,0-2.786,1.154,1.881,1.881,0,0,0-.512,1.8c.2.339.8.513,1.8.513a14.83,14.83,0,0,0,1.97-.174,23.639,23.639,0,0,1,3.1-.236q3.436,0,4.457,1.7a5.429,5.429,0,0,1,.442,1.089,4.928,4.928,0,0,1-1.055,4.08,14.222,14.222,0,0,1-6.021,4.83,10.34,10.34,0,0,1-4.457.989,12.655,12.655,0,0,1-4.35-.819q.609-1.765,2.007-5.269a6.878,6.878,0,0,0,2.992.712,4.857,4.857,0,0,0,1.258-.17,9.974,9.974,0,0,0,2.243-.678c.978-.41,1.417-.842,1.329-1.292-.111-.524-.727-.786-1.838-.786a23.518,23.518,0,0,0-3.265.306,17.968,17.968,0,0,1-3.269.41,5.6,5.6,0,0,1-2.413-.443A2.636,2.636,0,0,1,212.206,35q-.27-3.231,3.915-7.486,4.35-4.455,8.331-4.693,3.775-.105,4.834,4.151" style="fill: #fff"/>
          <path d="M73.6,30A10.962,10.962,0,0,0,71.553,26.3a8.37,8.37,0,0,0-6.667-3.265,9.009,9.009,0,0,0-7.619,3.947,13.2,13.2,0,0,0-2.516,7.243,12.274,12.274,0,0,0,.542,4.287,11.792,11.792,0,0,0,1.837,3.539,8.312,8.312,0,0,0,6.7,3.3,9.069,9.069,0,0,0,7.656-3.981,12.519,12.519,0,0,0,2.549-7.143A13.287,13.287,0,0,0,73.6,30m-7.53-.447c.9,0,1.627.986,1.627,2.229,0,1.2-.731,2.184-1.627,2.184s-1.631-.985-1.631-2.184c0-1.243.726-2.229,1.631-2.229m-3.472,0c.9,0,1.627.986,1.627,2.229,0,1.2-.727,2.184-1.627,2.184a2,2,0,0,1-1.672-2.184c0-1.243.771-2.229,1.672-2.229m-3.856,5.015c0-.986.557-1.716,1.284-1.716s1.284.73,1.284,1.716c0,.941-.553,1.712-1.284,1.712s-1.284-.771-1.284-1.712m8.438,4.671a.862.862,0,0,1-.468.125A2.238,2.238,0,0,1,65.55,38.9a3.236,3.236,0,0,0-.771-.472,1.3,1.3,0,0,0-.513-.044c-.258,0-.387,0-.428.044a4.528,4.528,0,0,0-.815.428,2.363,2.363,0,0,1-1.159.472,1.2,1.2,0,0,1-.557-.129,1.694,1.694,0,0,1-.683-1.328,3.4,3.4,0,0,1,.469-1.671c.044-.041.089-.085.133-.129s.04-.085.081-.129a3.183,3.183,0,0,1,3-1.672h.044a3.225,3.225,0,0,1,3,1.716c.041.044.085.085.085.129.045.044.085.125.129.17.642,1.154.473,2.486-.387,2.959m1.587-2.959c-.727,0-1.284-.771-1.284-1.712,0-.986.557-1.716,1.284-1.716s1.287.73,1.287,1.716c0,.941-.561,1.712-1.287,1.712" style="fill: #fff"/>
        </g>
      </g>
    </g>
  </g>
</svg>
